<svg height="464pt" viewBox="0 0 464 464" width="464pt" xmlns="http://www.w3.org/2000/svg"><path d="m368 464h64v-216l-200-200-200 200v216h64v-224h272zm0 0" fill="#f9cc91"/><path d="m128 368h208v64h-208zm0 0" fill="#238892"/><path d="m176 400c0 8.835938-7.164062 16-16 16s-16-7.164062-16-16 7.164062-16 16-16 16 7.164062 16 16zm0 0" fill="#fdbd40"/><path d="m320 400c0 8.835938-7.164062 16-16 16s-16-7.164062-16-16 7.164062-16 16-16 16 7.164062 16 16zm0 0" fill="#fdbd40"/><path d="m320 368h-176l8-72h160zm0 0" fill="#36afad"/><path d="m288 432h40v32h-40zm0 0" fill="#7d8d9c"/><path d="m136 432h40v32h-40zm0 0" fill="#7d8d9c"/><g fill="#ce926a"><path d="m128 128h104v16h-104zm0 0"/><path d="m96 160h184v16h-184zm0 0"/><path d="m64 192h168v16h-168zm0 0"/><path d="m248 192h32v16h-32zm0 0"/><path d="m296 192h16v16h-16zm0 0"/><path d="m32 248h40v16h-40zm0 0"/><path d="m32 280h40v16h-40zm0 0"/><path d="m56 312h40v16h-40zm0 0"/><path d="m72 344h24v16h-24zm0 0"/><path d="m32 376h40v16h-40zm0 0"/><path d="m32 408h48v16h-48zm0 0"/><path d="m392 248h40v16h-40zm0 0"/><path d="m392 280h40v16h-40zm0 0"/><path d="m368 312h40v16h-40zm0 0"/><path d="m368 344h24v16h-24zm0 0"/><path d="m392 376h40v16h-40zm0 0"/><path d="m384 408h48v16h-48zm0 0"/></g><path d="m232 48-232 232v-48l232-232 232 232v48zm0 0" fill="#e9686a"/></svg>